<svg xmlns="http://www.w3.org/2000/svg" width="40" height="39.996" viewBox="0 0 40 39.996">
  <g id="Group_362" data-name="Group 362" transform="translate(-22 -850.002)">
    <path id="Union_2" data-name="Union 2" d="M16184,4122a20,20,0,1,1,20,20A20,20,0,0,1,16184,4122Z" transform="translate(-16162 -3252)" fill="#ff8500"/>
    <g id="house" transform="translate(33 860)">
      <path id="Path_540" data-name="Path 540" d="M13.939,16.693H2.754A2.8,2.8,0,0,1,0,13.905V7.812A2.737,2.737,0,0,1,.918,5.776L6.51.7a2.755,2.755,0,0,1,3.672,0l5.592,5.075a2.71,2.71,0,0,1,.918,2.037v6.093A2.8,2.8,0,0,1,13.939,16.693ZM8.346,1.719a1.346,1.346,0,0,0-.751.25L2,7.044a.981.981,0,0,0-.334.851v6.093a1.12,1.12,0,0,0,1.085,1.1h11.1a1.108,1.108,0,0,0,1.085-1.1V7.9a1.584,1.584,0,0,0-.334-.851L9.014,1.97a.948.948,0,0,0-.668-.25Z" transform="translate(0 0)" fill="#fff"/>
    </g>
  </g>
</svg>
