<?xml version="1.0" encoding="utf-8"?>
<!-- Generator: Adobe Illustrator 15.1.0, SVG Export Plug-In . SVG Version: 6.00 Build 0)  -->
<!DOCTYPE svg PUBLIC "-//W3C//DTD SVG 1.1//EN" "http://www.w3.org/Graphics/SVG/1.1/DTD/svg11.dtd">
<svg version="1.1" id="Layer_1" xmlns="http://www.w3.org/2000/svg" xmlns:xlink="http://www.w3.org/1999/xlink" x="0px" y="0px"
	 width="1080px" height="1080px" viewBox="0 0 1080 1080" enable-background="new 0 0 1080 1080" xml:space="preserve">
<image overflow="visible" width="512" height="512" xlink:href="dollar_9731012.png"  transform="matrix(0.7501 0 0 0.7501 -472.0537 360)">
</image>
<g>
	<path fill-rule="evenodd" clip-rule="evenodd" fill="#FFFFFF" d="M500.376,106.044C261.27,138.151,125.6,273.712,93.549,512.871
		c0-135.607,0-271.222,0-406.827C229.163,106.044,364.759,106.044,500.376,106.044z"/>
	<path fill-rule="evenodd" clip-rule="evenodd" d="M500.376,106.044c18.084,0,36.186,0,54.231,0
		c126.526,11.492,215.754,61.645,286.496,133.915c67.486,68.957,120.348,170.074,120.348,300.037
		c0,129.927-52.861,231.079-120.348,300.044c-70.722,72.259-160.025,122.396-286.496,133.916c-18.046,0-36.147,0-54.231,0
		c-238.94-32.291-374.811-167.631-406.827-406.825c0-18.104,0-36.178,0-54.26C125.6,273.712,261.27,138.151,500.376,106.044z
		 M274.911,312.851c-50.976,55.252-93.361,140.144-84.729,250.875c7.972,102.576,49.131,170.428,110.181,227.151
		c58.384,54.248,145.488,94.104,249.18,86.444c98.991-7.314,173.261-48.251,228.846-108.478
		c52.146-56.537,95.755-141.178,88.15-250.882c-6.968-100.159-54.581-175.01-110.184-227.145
		c-55.327-51.883-143.933-96.057-250.878-88.15C405.241,210.083,325.229,258.34,274.911,312.851z"/>
	<path fill-rule="evenodd" clip-rule="evenodd" fill="#FFFFFF" d="M554.607,106.044c136.2,0,272.381,0,408.543,0
		c0,289.306,0,578.596,0,867.912c-136.162,0-272.343,0-408.543,0c126.471-11.52,215.774-61.657,286.496-133.916
		c67.486-68.966,120.348-170.117,120.348-300.044c0-129.963-52.861-231.08-120.348-300.037
		C770.361,167.689,681.134,117.536,554.607,106.044z"/>
	<path fill-rule="evenodd" clip-rule="evenodd" d="M558.024,299.283c0,17.526,0,35.029,0,52.555
		c58.383,13.942,98.481,46.163,98.298,118.66c-28.249,0-56.499,0-84.747,0c10.038-81.798-103.58-59.689-69.5,6.784
		c10.077,19.646,39.001,28.204,62.717,38.98c21.685,9.855,47.502,23.341,62.716,38.982c59.697,61.398,19.599,177.998-74.582,174.612
		c0,16.936,0,33.901,0,50.832c-10.369,3.766-27.536,0.729-40.684,1.717c0-16.966,0-33.896,0-50.861
		c-68.84-10.258-111.92-46.297-115.265-122.053c25.434-3.945,58.2-0.566,86.449-1.699c-13.055,51.47,63.869,82.189,83.064,40.704
		c13.293-28.712-5.576-55.754-23.732-66.116c-35.344-20.172-84.621-27.831-111.882-62.725
		c-32.583-41.72-22.488-101.59,3.401-130.524c21.192-23.679,41.617-29.365,83.047-37.294c0-17.526,0-35.028,0-52.555
		C530.893,299.283,544.46,299.283,558.024,299.283z"/>
	<path fill-rule="evenodd" clip-rule="evenodd" fill="#FFFFFF" d="M93.549,567.131c32.016,239.194,167.887,374.534,406.827,406.825
		c-135.617,0-271.213,0-406.827,0C93.549,838.342,93.549,702.728,93.549,567.131z"/>
</g>
</svg>
