<svg xmlns="http://www.w3.org/2000/svg" width="40" height="39.996" viewBox="0 0 40 39.996">
  <g id="Group_362" data-name="Group 362" transform="translate(-22 -850)">
    <path id="Union_2" data-name="Union 2" d="M16184,4122a20,20,0,1,1,20,20A20,20,0,0,1,16184,4122Z" transform="translate(-16162 -3252.002)" fill="#ff8500"/>
    <path id="account" d="M.93,17.227a.773.773,0,0,0,1.545,0,6.9,6.9,0,0,1,4.017-6.282,5.377,5.377,0,0,0,5.884-.006,7.051,7.051,0,0,1,1.971,1.372,6.91,6.91,0,0,1,2.037,4.917.773.773,0,0,0,1.545,0,8.445,8.445,0,0,0-2.49-6.009,8.557,8.557,0,0,0-1.832-1.379,5.409,5.409,0,1,0-8.363-.007,8.449,8.449,0,0,0-4.315,7.4Zm8.5-14.682A3.864,3.864,0,1,1,5.565,6.409,3.868,3.868,0,0,1,9.429,2.545Z" transform="translate(33.07 861)" fill="#fff"/>
  </g>
</svg>
