<svg xmlns="http://www.w3.org/2000/svg" width="22.168" height="21.219" viewBox="0 0 22.168 21.219">
  <g id="business" transform="translate(0 -11.73)">
    <g id="Icon_00000123428682624819958850000003944223229418961549_" transform="translate(0 11.73)">
      <path id="Path_857" data-name="Path 857" d="M30.929,284.074H27.034a2.836,2.836,0,0,1-2.835-2.835v-7.8a5.581,5.581,0,0,0,3.6,1.315H27.8a5.531,5.531,0,0,0,3.216-1.031,5.8,5.8,0,0,0,6.6,0,5.63,5.63,0,0,0,3.223,1.031,5.949,5.949,0,0,0,3.54-1.267v7.755a2.836,2.836,0,0,1-2.835,2.835H37.652v-5.439a1.289,1.289,0,0,0-1.289-1.289H32.218a1.289,1.289,0,0,0-1.289,1.289Z" transform="translate(-23.221 -262.855)" fill="#ff8500" fill-rule="evenodd"/>
      <path id="Path_858" data-name="Path 858" d="M22.021,17.218l.006.021a2.858,2.858,0,0,1,.14.859v.015A4.547,4.547,0,0,1,17.622,22.6h-.007a4.5,4.5,0,0,1-3.182-1.319l-.022-.022A4.755,4.755,0,0,1,11.1,22.6H11.1a4.755,4.755,0,0,1-3.309-1.34l-.022.022A4.5,4.5,0,0,1,4.583,22.6H4.576a4.546,4.546,0,0,1-3.394-1.522A4.736,4.736,0,0,1,0,18.138c0-.013,0-.028,0-.041a2.856,2.856,0,0,1,.154-.9L1.6,12.955A1.808,1.808,0,0,1,3.314,11.73h15.57A1.81,1.81,0,0,1,20.6,12.955C21,14.154,21.81,16.526,22.021,17.218Z" transform="translate(0 -11.73)" fill="#ff8500" fill-rule="evenodd"/>
    </g>
  </g>
</svg>
